<svg width="249" height="66" xmlns="http://www.w3.org/2000/svg" xmlns:xlink="http://www.w3.org/1999/xlink" xml:space="preserve" overflow="hidden"><defs><clipPath id="clip0"><rect x="536" y="146" width="249" height="66"/></clipPath><clipPath id="clip1"><rect x="536" y="146" width="249" height="66"/></clipPath><clipPath id="clip2"><rect x="537" y="147" width="248" height="65"/></clipPath><clipPath id="clip3"><rect x="537" y="147" width="248" height="65"/></clipPath><clipPath id="clip4"><rect x="537" y="147" width="248" height="65"/></clipPath></defs><g clip-path="url(#clip0)" transform="translate(-536 -146)"><g clip-path="url(#clip1)"><g clip-path="url(#clip2)"><g clip-path="url(#clip3)"><g clip-path="url(#clip4)"><path d="M8.27069 3.52063 16.7649 26.3209 25.1474 3.80005C26.3209 0.614714 28.1092 0.335298 29.2268 0.335298 31.5181 0.335298 33.5298 2.12356 33.5298 4.35888 33.5298 5.08536 33.4181 5.70007 33.1387 6.37067L21.0679 37.1143C19.8385 40.2997 18.5532 40.8026 16.7649 40.8026 15.312 40.8026 13.8031 40.5791 12.406 37.0026L0.72648 7.32068C0.279415 6.20302 0 5.53242 0 4.35888 0 2.12356 2.01179 0.335298 4.303 0.335298 6.2589 0.335298 7.6001 1.73238 8.27069 3.52063Z" fill="#FFFFFF" fill-rule="nonzero" fill-opacity="1" transform="matrix(1.01327 0 0 1 537.676 147)"/><path d="M32.1408 36.8908C32.1408 36.3879 32.1966 35.9967 32.5878 34.879L43.6527 4.91771C44.7703 1.90002 47.0615 0 49.7439 0 52.4263 0 54.6616 1.67649 55.6675 4.52653L66.6765 35.1026C66.9559 35.8849 67.1236 36.6114 67.1236 37.1143 67.1236 39.2379 65.3353 40.8026 63.2676 40.8026 60.8647 40.8026 59.6911 39.4614 59.1323 37.7291L57.5117 32.6437 41.9762 32.6437 40.2997 37.8408C39.7408 39.5173 38.6232 40.8026 36.2202 40.8026 34.0408 40.8026 32.1408 39.1261 32.1408 36.8908ZM44.3791 24.9239 54.9969 24.9239 49.7998 8.71776 49.688 8.71776 44.3791 24.9239Z" fill="#FFFFFF" fill-rule="nonzero" fill-opacity="1" transform="matrix(1.01327 0 0 1 537.676 147)"/><path d="M96.1349 5.58831C96.1349 7.87951 94.5701 9.72366 92.3907 9.72366 90.3789 9.72366 87.92 8.04716 85.0141 8.04716 82.1082 8.04716 80.3758 9.61189 80.3758 11.6796 80.3758 13.5237 82.4994 14.6414 86.3553 15.6473 96.9172 18.3296 99.0408 22.8003 99.0408 28.1651 99.0408 35.7652 92.8378 41.1299 84.7347 41.1299 77.4699 41.1299 71.1551 39.0623 71.1551 34.871 71.1551 32.5798 72.7198 30.9033 74.8993 30.9033 77.3023 30.9033 80.8229 33.0828 84.2876 33.0828 87.7524 33.0828 89.9877 31.1828 89.9877 28.2768 89.9877 25.9856 87.7524 24.7562 83.2259 23.6385 74.0052 21.3473 71.3228 17.9385 71.3228 12.6855 71.3228 4.97359 77.6376 0 85.1818 0 89.876 0 96.1349 1.78826 96.1349 5.58831L96.1349 5.58831Z" fill="#FFFFFF" fill-rule="nonzero" fill-opacity="1" transform="matrix(1.01327 0 0 1 537.676 147)"/><path d="M129.002 5.58831C129.002 7.87951 127.437 9.72366 125.258 9.72366 123.246 9.72366 120.787 8.04716 117.881 8.04716 114.975 8.04716 113.243 9.61189 113.243 11.6796 113.243 13.5237 115.367 14.6414 119.223 15.6473 129.784 18.3296 131.908 22.8003 131.908 28.1651 131.908 35.7652 125.705 41.1299 117.602 41.1299 110.337 41.1299 104.022 39.0623 104.022 34.871 104.022 32.5798 105.587 30.9033 107.767 30.9033 110.169 30.9033 113.69 33.0828 117.155 33.0828 120.62 33.0828 122.855 31.1828 122.855 28.2768 122.855 25.9856 120.62 24.7562 116.093 23.6385 106.872 21.3473 104.19 17.9385 104.19 12.6855 104.19 4.97359 110.505 0 118.049 0 122.743 0 129.002 1.78826 129.002 5.58831L129.002 5.58831Z" fill="#FFFFFF" fill-rule="nonzero" fill-opacity="1" transform="matrix(1.01327 0 0 1 537.676 147)"/><path d="M157.542 39.669 146.893 39.669C146.669 39.669 146.454 39.5572 146.334 39.3656 146.214 39.174 146.19 38.9345 146.286 38.735L157.678 13.1565 150.349 13.1565C150.126 13.1565 149.91 13.0447 149.791 12.8531 149.671 12.6615 149.647 12.422 149.743 12.2224L154.485 1.57271C154.589 1.33321 154.828 1.17354 155.092 1.17354L193.962 1.14959C194.186 1.14959 194.401 1.26136 194.521 1.45296 194.641 1.64456 194.665 1.88406 194.569 2.09162L187.775 17.3717 195.399 17.3717 200.077 6.86564C200.181 6.62614 200.421 6.46647 200.684 6.46647L211.334 6.46647C211.557 6.46647 211.773 6.57824 211.893 6.76983 212.012 6.96143 212.036 7.20093 211.941 7.40052L202.927 27.6462C205.602 27.6222 208.013 27.4945 209.354 26.8398 210.663 26.2012 212.38 23.6625 214.064 19.8864 216.467 14.4897 221.113 7.28077 229.656 3.52862 235.052 1.16556 239.882 1.17354 242.756 1.17354 242.98 1.17354 243.195 1.28531 243.315 1.47691 243.435 1.66851 243.459 1.90801 243.363 2.10759L238.661 12.6775C238.557 12.917 238.317 13.0766 238.054 13.0766 231.707 13.0766 228.833 13.7393 225.847 20.4372 223.508 25.6982 219.477 33.1387 211.549 37.0106 206.799 39.3337 202.297 39.5493 197.331 39.5572 197.283 39.5652 197.235 39.5732 197.187 39.5732L186.538 39.5732C186.314 39.5732 186.099 39.4614 185.979 39.2698 185.859 39.0782 185.835 38.8387 185.931 38.6392L190.066 29.3466 171.369 29.2987C171.146 29.2987 170.93 29.1869 170.811 28.9953 170.691 28.8037 170.667 28.5642 170.763 28.3647L177.533 13.1565 169.789 13.1565 158.165 39.2778C158.061 39.5173 157.822 39.677 157.558 39.677ZM147.915 38.3358 157.103 38.3358 168.727 12.2144C168.831 11.9749 169.07 11.8153 169.334 11.8153L178.538 11.8153C178.762 11.8153 178.978 11.927 179.097 12.1186 179.217 12.3102 179.241 12.5497 179.145 12.7493L172.375 27.9575 191.072 28.0054C191.296 28.0054 191.511 28.1172 191.631 28.3088 191.751 28.5004 191.775 28.7399 191.679 28.9394L187.544 38.224 197.036 38.224C197.084 38.216 197.132 38.2081 197.179 38.2081 202.201 38.2081 206.4 38.0165 210.951 35.7971 218.487 32.1168 222.359 24.9478 224.618 19.8784 227.819 12.6934 231.228 11.7674 237.607 11.7275L241.718 2.49877C238.892 2.52272 234.733 2.74625 230.182 4.74208 222.039 8.31859 217.577 15.2401 215.278 20.4213 213.976 23.3352 211.996 27.0314 209.937 28.0373 208.164 28.8995 205.251 28.9794 201.898 28.9874 201.674 28.9874 201.458 28.8756 201.339 28.684 201.211 28.4924 201.195 28.2529 201.291 28.0453L210.312 7.7917 201.123 7.7917 196.445 18.2977C196.341 18.5372 196.102 18.6969 195.838 18.6969L186.753 18.6969C186.53 18.6969 186.314 18.5851 186.194 18.3935 186.075 18.2019 186.051 17.9624 186.147 17.7549L192.94 2.48281 155.531 2.50676 151.379 11.8233 158.708 11.8233C158.931 11.8233 159.147 11.935 159.267 12.1266 159.387 12.3182 159.41 12.5577 159.315 12.7573L147.923 38.3358Z" fill="#FFFFFF" fill-rule="nonzero" fill-opacity="1" transform="matrix(1.01327 0 0 1 537.676 147)"/><path d="M3.80005 55.5558 3.80005 53.991 11.7115 53.991 11.7115 55.5558 8.65389 55.5558 8.65389 64.8244 6.8816 64.8244 6.8816 55.5558 3.80005 55.5558Z" fill="#FFFFFF" fill-rule="nonzero" fill-opacity="1" transform="matrix(1.01327 0 0 1 537.676 147)"/><path d="M17.9145 64.8244 17.9145 53.9831 24.7482 53.9831 24.7482 55.5158 19.6708 55.5158 19.6708 58.5814 23.7982 58.5814 23.7982 60.0983 19.6708 60.0983 19.6708 63.2596 24.7482 63.2596 24.7482 64.8084 17.9145 64.8084Z" fill="#FFFFFF" fill-rule="nonzero" fill-opacity="1" transform="matrix(1.01327 0 0 1 537.676 147)"/><path d="M34.9589 65C33.3782 65 32.3004 64.5609 31.7416 63.6907 31.1748 62.8126 30.8954 61.3756 30.8954 59.3718 30.8954 57.368 31.1828 55.939 31.7496 55.0927 32.3164 54.2465 33.3861 53.8154 34.9589 53.8154 35.9009 53.8154 36.9307 53.9511 38.0564 54.2146L37.9925 55.6356C37.0425 55.4679 36.0925 55.3801 35.1425 55.3801 34.1925 55.3801 33.5458 55.6595 33.2105 56.2264 32.8752 56.7932 32.7076 57.847 32.7076 59.4037 32.7076 60.9605 32.8672 62.0222 33.1945 62.5811 33.5219 63.1479 34.1605 63.4273 35.1105 63.4273 36.0606 63.4273 37.0185 63.3475 37.9925 63.1878L38.0404 64.6408C36.9547 64.8723 35.9248 64.992 34.9589 64.992Z" fill="#FFFFFF" fill-rule="nonzero" fill-opacity="1" transform="matrix(1.01327 0 0 1 537.676 147)"/><path d="M51.1091 64.8244 51.1091 60.1382 46.4229 60.1382 46.4229 64.8244 44.6665 64.8244 44.6665 53.9831 46.4229 53.9831 46.4229 58.6054 51.1091 58.6054 51.1091 53.9831 52.8814 53.9831 52.8814 64.8244 51.1091 64.8244Z" fill="#FFFFFF" fill-rule="nonzero" fill-opacity="1" transform="matrix(1.01327 0 0 1 537.676 147)"/><path d="M60.1142 64.8244 60.1142 53.9831 63.1878 53.9831 66.4769 63.2676 66.7164 63.2676 66.7164 53.9831 68.4727 53.9831 68.4727 64.8244 65.463 64.8244 62.0941 55.5238 61.8705 55.5238 61.8705 64.8244 60.1142 64.8244Z" fill="#FFFFFF" fill-rule="nonzero" fill-opacity="1" transform="matrix(1.01327 0 0 1 537.676 147)"/><path d="M83.0822 63.6748C82.4355 64.5609 81.2939 65 79.6573 65 78.0208 65 76.8792 64.5529 76.2245 63.6668 75.5699 62.7806 75.2426 61.3756 75.2426 59.4676 75.2426 57.5596 75.5699 56.1385 76.2325 55.2125 76.8871 54.2864 78.0367 53.8234 79.6573 53.8234 81.2779 53.8234 82.4195 54.2864 83.0742 55.2045 83.7288 56.1306 84.0561 57.5516 84.0561 59.4676 84.0561 61.3836 83.7288 62.7886 83.0822 63.6748ZM77.5976 62.5332C77.9569 63.1559 78.6435 63.4672 79.6573 63.4672 80.6712 63.4672 81.3498 63.1638 81.709 62.5491 82.0603 61.9344 82.2359 60.9126 82.2359 59.4676 82.2359 58.0226 82.0523 56.9848 81.6931 56.3301 81.3338 55.6755 80.6552 55.3482 79.6573 55.3482 78.6594 55.3482 77.9888 55.6755 77.6136 56.3301 77.2384 56.9848 77.0628 58.0226 77.0628 59.4516 77.0628 60.8806 77.2384 61.9105 77.5976 62.5252Z" fill="#FFFFFF" fill-rule="nonzero" fill-opacity="1" transform="matrix(1.01327 0 0 1 537.676 147)"/><path d="M96.9172 64.8244 90.8419 64.8244 90.8419 53.9831 92.5983 53.9831 92.5983 63.2517 96.9172 63.2517 96.9172 64.8164Z" fill="#FFFFFF" fill-rule="nonzero" fill-opacity="1" transform="matrix(1.01327 0 0 1 537.676 147)"/><path d="M110.281 63.6748C109.635 64.5609 108.493 65 106.856 65 105.22 65 104.078 64.5529 103.424 63.6668 102.769 62.7806 102.442 61.3756 102.442 59.4676 102.442 57.5596 102.769 56.1385 103.432 55.2125 104.086 54.2864 105.236 53.8234 106.856 53.8234 108.477 53.8234 109.619 54.2864 110.273 55.2045 110.928 56.1306 111.255 57.5516 111.255 59.4676 111.255 61.3836 110.928 62.7886 110.281 63.6748ZM104.797 62.5332C105.156 63.1559 105.843 63.4672 106.856 63.4672 107.87 63.4672 108.549 63.1638 108.908 62.5491 109.259 61.9344 109.435 60.9126 109.435 59.4676 109.435 58.0226 109.251 56.9848 108.892 56.3301 108.533 55.6755 107.854 55.3482 106.856 55.3482 105.859 55.3482 105.188 55.6755 104.813 56.3301 104.437 56.9848 104.262 58.0226 104.262 59.4516 104.262 60.8806 104.437 61.9105 104.797 62.5252Z" fill="#FFFFFF" fill-rule="nonzero" fill-opacity="1" transform="matrix(1.01327 0 0 1 537.676 147)"/><path d="M122.456 60.681 122.456 59.1323 125.537 59.1323 125.537 64.6408C125.25 64.7126 124.675 64.7924 123.805 64.8802 122.935 64.9681 122.304 65.008 121.913 65.008 120.268 65.008 119.135 64.5529 118.512 63.6508 117.889 62.7407 117.578 61.3197 117.578 59.3877 117.578 57.4558 117.897 56.0427 118.536 55.1566 119.175 54.2705 120.276 53.8314 121.849 53.8314 122.775 53.8314 123.821 53.9352 124.979 54.1507L125.529 54.2625 125.465 55.6516C124.188 55.4839 123.047 55.3961 122.033 55.3961 121.019 55.3961 120.324 55.6835 119.949 56.2503 119.574 56.8171 119.39 57.8709 119.39 59.4117 119.39 60.9525 119.566 62.0142 119.917 62.597 120.268 63.1798 120.987 63.4752 122.065 63.4752 122.831 63.4752 123.406 63.4273 123.789 63.3315L123.789 60.689 122.448 60.689Z" fill="#FFFFFF" fill-rule="nonzero" fill-opacity="1" transform="matrix(1.01327 0 0 1 537.676 147)"/><path d="M136.219 64.8244 134.447 64.8244 134.447 60.3617 131.046 53.9831 133.026 53.9831 135.317 58.6373 137.624 53.9831 139.588 53.9831 136.219 60.3617 136.219 64.8244Z" fill="#FFFFFF" fill-rule="nonzero" fill-opacity="1" transform="matrix(1.01327 0 0 1 537.676 147)"/><path d="M153.894 64.8244 153.894 53.9831 160.616 53.9831 160.616 55.5158 155.65 55.5158 155.65 59.1722 159.778 59.1722 159.778 60.705 155.65 60.705 155.65 64.8164 153.894 64.8164Z" fill="#FFFFFF" fill-rule="nonzero" fill-opacity="1" transform="matrix(1.01327 0 0 1 537.676 147)"/><path d="M174.315 63.6748C173.669 64.5609 172.527 65 170.89 65 169.254 65 168.112 64.5529 167.458 63.6668 166.803 62.7727 166.476 61.3756 166.476 59.4676 166.476 57.5596 166.803 56.1385 167.466 55.2125 168.12 54.2864 169.27 53.8234 170.89 53.8234 172.511 53.8234 173.653 54.2864 174.307 55.2045 174.962 56.1306 175.289 57.5516 175.289 59.4676 175.289 61.3836 174.962 62.7886 174.315 63.6748ZM168.831 62.5332C169.19 63.1559 169.877 63.4672 170.89 63.4672 171.904 63.4672 172.583 63.1638 172.942 62.5491 173.293 61.9344 173.469 60.9126 173.469 59.4676 173.469 58.0226 173.285 56.9848 172.926 56.3301 172.567 55.6755 171.888 55.3482 170.89 55.3482 169.893 55.3482 169.222 55.6755 168.847 56.3301 168.472 56.9848 168.296 58.0226 168.296 59.4516 168.296 60.8806 168.472 61.9105 168.831 62.5252Z" fill="#FFFFFF" fill-rule="nonzero" fill-opacity="1" transform="matrix(1.01327 0 0 1 537.676 147)"/><path d="M183.831 60.9684 183.831 64.8324 182.075 64.8324 182.075 53.991 186.186 53.991C188.637 53.991 189.859 55.1406 189.859 57.4398 189.859 58.9806 189.268 60.0264 188.086 60.5693L189.875 64.8244 187.943 64.8244 186.378 60.9605 183.831 60.9605ZM188.055 57.4558C188.055 56.1545 187.432 55.5079 186.186 55.5079L183.831 55.5079 183.831 59.4516 186.218 59.4516C186.849 59.4516 187.312 59.268 187.607 58.9087 187.903 58.5415 188.047 58.0625 188.047 57.4638Z" fill="#FFFFFF" fill-rule="nonzero" fill-opacity="1" transform="matrix(1.01327 0 0 1 537.676 147)"/><path d="M208.005 55.3482C206.664 55.3482 205.993 55.8192 205.993 56.7533 205.993 57.2402 206.153 57.5835 206.464 57.7911 206.783 57.9986 207.478 58.2461 208.564 58.5495 209.649 58.8529 210.408 59.2121 210.847 59.6272 211.286 60.0424 211.509 60.697 211.509 61.5991 211.509 62.7407 211.182 63.587 210.535 64.1538 209.889 64.7206 209.003 65 207.885 65 206.991 65 205.993 64.8962 204.907 64.6807L204.34 64.5689 204.516 63.1638C205.937 63.3554 207.023 63.4512 207.773 63.4512 209.083 63.4512 209.737 62.8685 209.737 61.7109 209.737 61.2558 209.585 60.9205 209.298 60.705 209.003 60.4894 208.34 60.2499 207.302 59.9945 206.264 59.739 205.498 59.3798 204.995 58.9247 204.492 58.4697 204.237 57.7512 204.237 56.7692 204.237 55.7873 204.556 55.0448 205.195 54.5499 205.833 54.0469 206.719 53.7994 207.845 53.7994 208.659 53.7994 209.617 53.8952 210.727 54.0868L211.278 54.1826 211.134 55.6037C209.657 55.436 208.612 55.3482 208.005 55.3482Z" fill="#FFFFFF" fill-rule="nonzero" fill-opacity="1" transform="matrix(1.01327 0 0 1 537.676 147)"/><path d="M217.09 64.8244 219.764 53.9831 223.261 53.9831 225.951 64.8244 224.179 64.8244 223.596 62.5012 219.437 62.5012 218.854 64.8244 217.098 64.8244ZM221.129 55.46 219.788 60.9525 223.253 60.9525 221.928 55.46 221.137 55.46Z" fill="#FFFFFF" fill-rule="nonzero" fill-opacity="1" transform="matrix(1.01327 0 0 1 537.676 147)"/><path d="M236.218 61.4554 234.006 61.4554 234.006 64.8244 232.25 64.8244 232.25 53.9831 236.218 53.9831C238.677 53.9831 239.906 55.1965 239.906 57.6234 239.906 58.8688 239.595 59.8188 238.98 60.4735 238.365 61.1281 237.439 61.4554 236.218 61.4554ZM234.006 59.9386 236.21 59.9386C237.479 59.9386 238.11 59.1722 238.11 57.6314 238.11 56.8969 237.958 56.3541 237.655 56.0188 237.351 55.6835 236.872 55.5158 236.218 55.5158L234.014 55.5158 234.014 59.9466Z" fill="#FFFFFF" fill-rule="nonzero" fill-opacity="1" transform="matrix(1.01327 0 0 1 537.676 147)"/></g></g></g></g></g></svg>